# xmcd CD database file
#
# Track frame offsets:
#	150
#	7582
#	13705
#	21125
#	30650
#	38462
#	48237
#	54555
#	64230
#	71325
#	80570
#	89050
#	95447
#	107570
#	118552
#	127915
#	135402
#	145450
#	155872
#	165312
#	171415
#	180497
#	190472
#
# Disc length: 2663 seconds
#
# Revision: 1
# Processed by: cddbd v1.5.2PL0 Copyright (c) Steve Scherf et al.
# Submitted via: CDex 1.79
#
DISCID=2b0a6517
DTITLE=Various Artist - Trampska Oaza
DYEAR=1994
DGENRE=Country
TTITLE0=Ruty Suty
TTITLE1=Pisen Domorodce
TTITLE2=Kam Tak Spechas
TTITLE3=Kvetinarka
TTITLE4=Rodne Udoli
TTITLE5=Pampelisky
TTITLE6=Kryte Vozy
TTITLE7=Zlatokop Tom
TTITLE8=Ranch Y
TTITLE9=Japonecka
TTITLE10=Quantanamo
TTITLE11=Hospudka
TTITLE12=Nelly Gray
TTITLE13=Montgomery
TTITLE14=Rikatado
TTITLE15=Malajka
TTITLE16=Niagara
TTITLE17=Mexicka Svadba
TTITLE18=Cikanka
TTITLE19=Zradny Bendzo
TTITLE20=Taboraku Plapolej
TTITLE21=Na Hrade Okori
TTITLE22=Co Nevidet Se Sejdeme
EXTD=YEAR: 1994
EXTT0=
EXTT1=
EXTT2=
EXTT3=
EXTT4=
EXTT5=
EXTT6=
EXTT7=
EXTT8=
EXTT9=
EXTT10=
EXTT11=
EXTT12=
EXTT13=
EXTT14=
EXTT15=
EXTT16=
EXTT17=
EXTT18=
EXTT19=
EXTT20=
EXTT21=
EXTT22=
PLAYORDER=
